<svg xmlns="http://www.w3.org/2000/svg" width="36.799" height="60.588" viewBox="0 0 36.799 60.588">
    <defs>
        <style>
            .cls-1,.cls-3,.cls-4,.cls-6{fill:none}.cls-1,.cls-3,.cls-4{stroke:#000}.cls-1,.cls-4{stroke-width:2px}.cls-2{fill:#f1f1ef}.cls-3,.cls-4{stroke-linecap:round}.cls-3{stroke-width:3px}.cls-5,.cls-7{stroke:none}
        </style>
    </defs>
    <g id="Group_152" data-name="Group 152" transform="translate(.001 1.1)">
        <g id="Ellipse_90" class="cls-1" data-name="Ellipse 90" transform="translate(3.505 3.412)">
            <circle cx="14.895" cy="14.895" r="14.895" class="cls-5"/>
            <circle cx="14.895" cy="14.895" r="13.895" class="cls-6"/>
        </g>
        <g id="Path_131" class="cls-2" data-name="Path 131">
            <path d="M19.276 38.427h-1.753a16.415 16.415 0 0 1-11.683-4.84A16.415 16.415 0 0 1 1 21.905V1.681l16.648 9.035.47.255.473-.249 17.208-9.065v20.247c0 4.414-1.719 8.563-4.84 11.684a16.415 16.415 0 0 1-11.683 4.84z" class="cls-5" transform="translate(0 20.06)"/>
            <path d="M34.799 3.314l-15.742 8.293-.946.498-.94-.51L2 3.361v18.543c0 4.147 1.615 8.045 4.547 10.977a15.422 15.422 0 0 0 10.976 4.546h1.753c4.146 0 8.044-1.614 10.976-4.546A15.422 15.422 0 0 0 34.8 21.904V3.314M0 0l18.125 9.837L36.799 0v21.904c0 9.678-7.845 17.523-17.523 17.523h-1.753C7.845 39.427 0 31.582 0 21.904V0z" class="cls-7" transform="translate(0 20.06)"/>
        </g>
        <path id="Path_132" d="M-2899.373 1678.413l18.93-9.864" class="cls-1" data-name="Path 132" transform="translate(2899.923 -1638.371)"/>
        <g id="Ellipse_91" class="cls-1" data-name="Ellipse 91" transform="translate(23.656 15.678)">
            <circle cx="1.5" cy="1.5" r="1.5" class="cls-5"/>
            <circle cx="1.5" cy="1.5" r=".5" class="cls-6"/>
        </g>
        <g id="Ellipse_92" class="cls-1" data-name="Ellipse 92" transform="translate(10.514 15.678)">
            <circle cx="1.5" cy="1.5" r="1.5" class="cls-5"/>
            <circle cx="1.5" cy="1.5" r=".5" class="cls-6"/>
        </g>
        <path id="Line_39" d="M0 0h1" class="cls-3" data-name="Line 39" transform="translate(17.961 22.879)"/>
        <path id="Path_133" d="M-2941.916 1636.961s-.235-3.393 4.079-3.855" class="cls-4" data-name="Path 133" transform="translate(2959.513 -1633.105)"/>
        <path id="Line_40" d="M0 0h30.666" class="cls-1" data-name="Line 40" transform="translate(3.067 51.163)"/>
    </g>
</svg>
