<svg xmlns="http://www.w3.org/2000/svg" width="58.025" height="57.152" viewBox="0 0 58.025 57.152">
    <defs>
        <style>
            .cls-1,.cls-3,.cls-4,.cls-5{fill:none}.cls-1,.cls-2,.cls-5,.cls-6{stroke:#1a1818}.cls-1,.cls-2{stroke-linecap:round}.cls-1,.cls-2,.cls-3,.cls-4,.cls-5,.cls-6{stroke-miterlimit:10}.cls-1,.cls-2,.cls-4,.cls-5,.cls-6{stroke-width:2px}.cls-2{fill:#fff}.cls-4{stroke:#040505}.cls-6{fill:#bac2c5}.cls-7,.cls-8{stroke:none}.cls-8{fill:#1a1818}
        </style>
    </defs>
    <g id="Group_345" data-name="Group 345" transform="translate(-355.365 -105.553)">
        <path id="Path_483" d="M387.156 141.1c-.29-.3-.592-.6-.9-.878a17.874 17.874 0 0 0-5.451-3.388 6.846 6.846 0 0 1-12.844-.08 17.874 17.874 0 0 0-11.593 16.724v7.033" class="cls-1" data-name="Path 483"/>
        <path id="Line_93" d="M0 0v5.827" class="cls-2" data-name="Line 93" transform="translate(392.132 154.68)"/>
        <g id="Path_484" class="cls-3" data-name="Path 484">
            <path d="M368.7 159.962a1.489 1.489 0 0 1 .509-2.015l23.744-14.589a2.22 2.22 0 0 1 3.084.78 2.22 2.22 0 0 1-.86 3.062L370.7 160.524a1.489 1.489 0 0 1-2-.562z" class="cls-7"/>
            <path d="M369.99 160.706c.24 0 .485-.059.711-.182l24.476-13.324a2.22 2.22 0 1 0-2.224-3.842l-23.744 14.589a1.489 1.489 0 0 0 .781 2.759m0 2a3.5 3.5 0 0 1-3.022-1.743 3.469 3.469 0 0 1-.362-2.602 3.472 3.472 0 0 1 1.556-2.118l23.744-14.589a4.213 4.213 0 0 1 2.207-.625c1.503 0 2.903.808 3.655 2.107.575.993.721 2.15.41 3.255a4.187 4.187 0 0 1-2.045 2.566l-24.476 13.324a3.497 3.497 0 0 1-1.667.425z" class="cls-8"/>
        </g>
        <path id="Path_485" d="M406.28 143.57c3.541-2.051 4.829-5.84 5.419-7.786-2.993 1.733-6.366-1.245-9.908.805a3.8 3.8 0 0 0-.478.331 4.1 4.1 0 0 0-.921 5.241 4.124 4.124 0 0 0 4.863 1.855 5.6 5.6 0 0 0 1.025-.446z" class="cls-4" data-name="Path 485"/>
        <path id="Rectangle_549" d="M0 0h18.147v10.968a9.073 9.073 0 0 1-9.073 9.073A9.073 9.073 0 0 1 0 10.968V0z" class="cls-5" data-name="Rectangle 549" transform="translate(365.321 114.354)"/>
        <path id="Path_486" d="M378.507 117.434s-6.519.572-9.387-1.567a11.741 11.741 0 0 1-6.9 1.954v-1.8a9.464 9.464 0 0 1 9.464-9.464h14.566v1.805c0 5.222-2.516 9.072-7.743 9.072z" class="cls-6" data-name="Path 486"/>
    </g>
</svg>
