<svg xmlns="http://www.w3.org/2000/svg" width="692.131" height="467.115" viewBox="0 0 692.131 467.115">
    <defs>
        <style>
            .cls-1,.cls-16,.cls-20,.cls-3,.cls-42,.cls-43,.cls-46,.cls-47,.cls-48,.cls-8,.cls-9{fill:none}.cls-2{fill:#e9ebef}.cls-3{stroke:#712d21}.cls-16,.cls-20,.cls-3,.cls-42,.cls-43,.cls-46,.cls-47,.cls-48,.cls-8,.cls-9{stroke-miterlimit:10}.cls-3,.cls-42,.cls-47,.cls-8,.cls-9{stroke-width:3px}.cls-4{fill:#f2edf1}.cls-5{fill:#841417}.cls-6{fill:#dda05c}.cls-7{fill:#e97524}.cls-8{stroke:#dda05c}.cls-16,.cls-42,.cls-43,.cls-46,.cls-47,.cls-48,.cls-8,.cls-9{stroke-linecap:round}.cls-9{stroke:#841417}.cls-10{fill:#f69a34}.cls-11{fill:#cdcdcc}.cls-12{fill:#f7f5f4}.cls-13{clip-path:url(#clip-path)}.cls-14{fill:#e4622e}.cls-15,.cls-26{fill:#fff}.cls-16{stroke:#dbdbdb}.cls-16,.cls-43{stroke-width:4px}.cls-17{fill:#dbdbdb}.cls-18{fill:#f5f6f8}.cls-19{opacity:.8}.cls-20,.cls-26{stroke:#cdcdcc}.cls-21{clip-path:url(#clip-path-2)}.cls-22,.cls-32{fill:#211a1a}.cls-23{fill:#d65e62}.cls-24{fill:#acacac}.cls-25{fill:#f0787c}.cls-27{clip-path:url(#clip-path-3)}.cls-28{fill:#ed5e63}.cls-29{fill:#5e3839}.cls-30{fill:#734243}.cls-31{clip-path:url(#clip-path-4)}.cls-32{opacity:.6}.cls-33{clip-path:url(#clip-path-5)}.cls-34{fill:#212332}.cls-35{fill:#f5a6a9}.cls-36{fill:#4654a0}.cls-37{fill:#712d21}.cls-38{fill:#58231c}.cls-39{fill:#bcbcbc}.cls-40{fill:#040505;opacity:.1}.cls-41{fill:#eaebef}.cls-42{stroke:#fff}.cls-43{stroke:#e6e8ee}.cls-44{fill:#ffb0a2}.cls-45{fill:#442012}.cls-46{stroke:#acacac}.cls-46,.cls-48{stroke-width:2px}.cls-47{stroke:#442012}.cls-48{stroke:#fafdfe;opacity:.15}
        </style>
        <clipPath id="clip-path">
            <path id="Path_379" d="M630.164 326.157l290.86 1.723 4.808-42.467H637.376z" class="cls-1" data-name="Path 379" transform="translate(-630.164 -285.413)"/>
        </clipPath>
        <clipPath id="clip-path-2">
            <circle id="Ellipse_157" cx="22.174" cy="22.174" r="22.174" class="cls-1" data-name="Ellipse 157"/>
        </clipPath>
        <clipPath id="clip-path-3">
            <circle id="Ellipse_159" cx="31.121" cy="31.121" r="31.121" class="cls-1" data-name="Ellipse 159"/>
        </clipPath>
        <clipPath id="clip-path-4">
            <circle id="Ellipse_161" cx="23.243" cy="23.243" r="23.243" class="cls-1" data-name="Ellipse 161"/>
        </clipPath>
        <clipPath id="clip-path-5">
            <circle id="Ellipse_165" cx="25.43" cy="25.43" r="25.43" class="cls-1" data-name="Ellipse 165"/>
        </clipPath>
    </defs>
    <g id="Group_242" data-name="Group 242" transform="translate(-237.918 -132.498)">
        <g id="Group_218" data-name="Group 218" transform="translate(245.683 132.498)">
            <circle id="Ellipse_146" cx="14.377" cy="14.377" r="14.377" class="cls-2" data-name="Ellipse 146" transform="translate(163.271 133.937)"/>
            <circle id="Ellipse_147" cx="5.495" cy="5.495" r="5.495" class="cls-2" data-name="Ellipse 147" transform="translate(197.838 161.424)"/>
            <g id="Group_217" data-name="Group 217">
                <path id="Path_372" d="M382.55 300.293s13.25 18.147 36.25 16.676 29.954-18.277 29.954-18.277 25.2 12.547 41.448-13.772c15.742-25.5-14.062-44.817-14.062-44.817s7.649-41.576-39.588-57.762c-47.614-16.315-63.841 19.106-63.841 19.106s-26.327-13.515-49.045 7.805-9.831 43.382-9.831 43.382-23.811 14.578-12.7 35.527c11.512 21.7 41.175 14.282 41.175 14.282s21.885 22.135 40.24-2.15z" class="cls-2" data-name="Path 372" transform="translate(-298.178 -178.046)"/>
                <path id="Rectangle_458" d="M0 0h70.911v87.97H0z" class="cls-3" data-name="Rectangle 458" transform="rotate(-90 82.37 24.821)"/>
                <path id="Rectangle_459" d="M0 0h65.326v81.042H0z" class="cls-4" data-name="Rectangle 459" transform="rotate(-90 82.76 21.747)"/>
                <path id="Rectangle_460" d="M0 0h35.479v52.217H0z" class="cls-5" data-name="Rectangle 460" transform="translate(60.515 39.072)"/>
                <path id="Path_373" d="M345.914 260.115s27.536-.938 34.95-20.4c0 0 17.488 13.123 19.076 26.219 0 0-53.577.053-54.026 0z" class="cls-5" data-name="Path 373" transform="translate(-285.4 -161.538)"/>
                <path id="Path_374" d="M345.914 261.084s19.593-1.325 18.535-18.8 7.943-37.068 19.593-32.833.5 25.928 6.521 29.655c2.788 1.725 6.695-.134 10.031-3.581a1.773 1.773 0 0 1 3.063 1.279c-.309 7.943-2.365 22.935-13.094 28.707-14.9 8.017-44.649 2.862-44.649 2.862z" class="cls-6" data-name="Path 374" transform="translate(-285.4 -169.796)"/>
                <path id="Path_375" d="M387.016 208.867s-4.788 6.357.931 11.793 11.446-7.249 16.5 1.507c4.936 8.548-8.872 14.048-5.012 21.166 4.409 8.128 11.254-1.671 14.761 1.141s3.505 9.415 3.505 9.415v-44.913z" class="cls-7" data-name="Path 375" transform="translate(-274.9 -169.796)"/>
                <path id="Line_65" d="M0 0h14.612" class="cls-8" data-name="Line 65" transform="translate(71.336 75.999)"/>
                <path id="Line_66" d="M0 0h6.339" class="cls-9" data-name="Line 66" transform="translate(79.61 76)"/>
                <path id="Line_67" d="M0 0h15.183" class="cls-8" data-name="Line 67" transform="translate(71.336 70.427)"/>
                <path id="Line_68" d="M0 0h16.192" class="cls-8" data-name="Line 68" transform="translate(71.336 64.232)"/>
                <path id="Line_69" d="M0 0h17.232" class="cls-8" data-name="Line 69" transform="translate(71.336 58.66)"/>
                <path id="Line_70" d="M0 0h6.594" class="cls-10" data-name="Line 70" transform="translate(71.94 70.427)"/>
                <path id="Path_1970" d="M0 0h8.325" class="cls-1" data-name="Path 1970" transform="translate(70.638 58.66)"/>
                <path id="Line_73" d="M0 0h6.36" class="cls-9" data-name="Line 73" transform="translate(79.588 70.427)"/>
                <path id="Line_74" d="M0 0h5.657" class="cls-9" data-name="Line 74" transform="translate(80.292 64.232)"/>
                <path id="Line_75" d="M0 0h5.766" class="cls-9" data-name="Line 75" transform="translate(80.183 58.66)"/>
            </g>
        </g>
        <g id="Group_241" data-name="Group 241" transform="translate(237.917 277.919)">
            <g id="Group_221" data-name="Group 221" transform="translate(358.966 -20)">
                <path id="Path_376" d="M849.654 507.123h-245a10.731 10.731 0 0 1-10.328-13.641L644.98 313.8a10.729 10.729 0 0 1 10.327-7.819h245a10.731 10.731 0 0 1 10.328 13.641L859.982 499.3a10.731 10.731 0 0 1-10.328 7.823z" class="cls-11" data-name="Path 376" transform="translate(-591.115 -286.293)"/>
                <path id="Path_377" d="M846.723 503.65h-245a10.73 10.73 0 0 1-10.323-13.641l50.649-179.684a10.732 10.732 0 0 1 10.328-7.819h245a10.73 10.73 0 0 1 10.323 13.641l-50.65 179.684a10.73 10.73 0 0 1-10.327 7.819z" class="cls-12" data-name="Path 377" transform="translate(-590.99 -286.144)"/>
                <g id="Group_220" data-name="Group 220" transform="translate(37.498)">
                    <g id="Group_219" class="cls-13" data-name="Group 219">
                        <path id="Path_378" d="M848.832 501.83h-245a10.73 10.73 0 0 1-10.327-13.641L644.157 308.5a10.73 10.73 0 0 1 10.327-7.819h245a10.73 10.73 0 0 1 10.327 13.641L859.159 494.01a10.73 10.73 0 0 1-10.327 7.82z" class="cls-14" data-name="Path 378" transform="translate(-628.578 -286.066)"/>
                        <circle id="Ellipse_148" cx="3.044" cy="3.044" r="3.044" class="cls-15" data-name="Ellipse 148" transform="translate(23.312 25.015)"/>
                        <circle id="Ellipse_149" cx="3.044" cy="3.044" r="3.044" class="cls-15" data-name="Ellipse 149" transform="translate(34.392 25.015)"/>
                        <circle id="Ellipse_150" cx="3.044" cy="3.044" r="3.044" class="cls-15" data-name="Ellipse 150" transform="translate(45.771 25.015)"/>
                    </g>
                </g>
                <path id="Line_76" d="M0 0h59.396" class="cls-16" data-name="Line 76" transform="translate(65.316 63.256)"/>
                <path id="Line_77" d="M0 0h90.42" class="cls-16" data-name="Line 77" transform="translate(57.61 85.702)"/>
                <path id="Line_78" d="M0 0h124.197" class="cls-16" data-name="Line 78" transform="translate(51.817 107.239)"/>
                <path id="Line_79" d="M0 0h124.197" class="cls-16" data-name="Line 79" transform="translate(45.828 128.113)"/>
                <path id="Path_380" d="M849.734 490.2H773.64a3.933 3.933 0 0 1-3.764-5.075l41.932-138.141a3.933 3.933 0 0 1 3.764-2.791H889.4a3.933 3.933 0 0 1 3.78 5.019l-39.666 138.14a3.932 3.932 0 0 1-3.78 2.848z" class="cls-17" data-name="Path 380" transform="translate(-598.637 -287.928)"/>
                <circle id="Ellipse_151" cx="13.698" cy="13.698" r="13.698" class="cls-17" data-name="Ellipse 151" transform="translate(36.848 145.476)"/>
                <circle id="Ellipse_152" cx="13.698" cy="13.698" r="13.698" class="cls-17" data-name="Ellipse 152" transform="translate(84.274 145.476)"/>
                <circle id="Ellipse_153" cx="13.698" cy="13.698" r="13.698" class="cls-17" data-name="Ellipse 153" transform="translate(132.953 145.476)"/>
            </g>
            <path id="Path_381" d="M625.969 385.53H539.5a3.788 3.788 0 0 1-3.645-4.815l22.294-75.179a3.786 3.786 0 0 1 3.644-2.76h86.469a3.788 3.788 0 0 1 3.645 4.815l-22.293 75.179a3.786 3.786 0 0 1-3.645 2.76z" class="cls-11" data-name="Path 381" transform="translate(-240.659 -276.156)"/>
            <path id="Path_382" d="M624 382.636h-86.469a3.787 3.787 0 0 1-3.644-4.815l22.293-75.178a3.787 3.787 0 0 1 3.645-2.76h86.468a3.788 3.788 0 0 1 3.645 4.815l-22.292 75.178a3.788 3.788 0 0 1-3.646 2.76z" class="cls-18" data-name="Path 382" transform="translate(-240.575 -276.032)"/>
            <path id="Path_383" d="M794.109 367.219H733.23a2.666 2.666 0 0 1-2.566-3.389l15.7-52.932a2.666 2.666 0 0 1 2.566-1.943h60.881a2.666 2.666 0 0 1 2.566 3.389l-15.7 52.932a2.665 2.665 0 0 1-2.568 1.943z" class="cls-11" data-name="Path 383" transform="translate(-228.996 -336.42)"/>
            <path id="Path_384" d="M792.756 364.775h-60.88a2.666 2.666 0 0 1-2.566-3.389l15.7-52.932a2.667 2.667 0 0 1 2.566-1.943h60.881a2.666 2.666 0 0 1 2.566 3.389l-15.7 52.932a2.667 2.667 0 0 1-2.567 1.943z" class="cls-15" data-name="Path 384" transform="translate(-228.938 -336.315)"/>
            <g id="Group_225" class="cls-19" data-name="Group 225" transform="translate(516.836 -22.847)">
                <circle id="Ellipse_154" cx="21.912" cy="21.912" r="21.912" class="cls-20" data-name="Ellipse 154" transform="translate(.262 .262)"/>
                <g id="Group_224" data-name="Group 224">
                    <g id="Group_223" class="cls-21" data-name="Group 223">
                        <g id="Group_222" data-name="Group 222" transform="translate(3.035 8.866)">
                            <path id="Path_385" d="M784.062 332.957c-1.292-2.77-4.271-6.9-7.338-8.379a28.669 28.669 0 0 0-5.685-.576v11.512a22.156 22.156 0 0 1 5.652 2.579c2.572 1.671 3.547 5.111 6.673 4.3 3.536-.917 1.989-6.666.698-9.436z" class="cls-22" data-name="Path 385" transform="translate(-750.6 -323.082)"/>
                            <path id="Path_386" d="M757.369 332.957c1.292-2.77 4.271-6.9 7.338-8.379a28.662 28.662 0 0 1 5.684-.576v11.512a22.147 22.147 0 0 0-5.651 2.579c-2.572 1.671-3.548 5.111-6.673 4.3-3.531-.917-1.99-6.666-.698-9.436z" class="cls-22" data-name="Path 386" transform="translate(-749.952 -323.082)"/>
                            <circle id="Ellipse_155" cx="1.037" cy="1.037" r="1.037" class="cls-23" data-name="Ellipse 155" transform="translate(25.467 11.842)"/>
                            <circle id="Ellipse_156" cx="1.037" cy="1.037" r="1.037" class="cls-23" data-name="Ellipse 156" transform="translate(12.625 11.842)"/>
                            <path id="Path_387" d="M763.828 332.385s5.039 2.474 13.049 0a5.194 5.194 0 0 0 1.914-3.462c.044-3.4-3.077-6.047-9.02-5.874-5.521.159-9.302 4.834-5.943 9.336z" class="cls-22" data-name="Path 387" transform="translate(-750.237 -323.041)"/>
                            <path id="Path_388" d="M767.119 345.129a4.229 4.229 0 0 1-1.269 3.106c-1.248 1.21-.5 1.969-.707 4.521s-.306 8.679.817 10.107 6.227 5.2 6.227 5.2-1.02-6.723 1.531-10.252 3.569-4.651 3.265-7.1-2.755-3.675-2.653-6.431-7.211.849-7.211.849z" class="cls-23" data-name="Path 388" transform="translate(-750.342 -323.905)"/>
                            <path id="Path_389" d="M766.454 345.675a95.68 95.68 0 0 0-11.851 4.342c-1.225.714-4.916 23.108-4.916 23.108h4.185l4.571-13.609s-.59 1.131 1.452 4.977 3.6 7.962 3.384 9.527c0 0 13.05-2.484 16.317 0 0 0-1.123-9.867.816-12.316s1.917-3.9 1.917-3.9 1.043 16.892 1.349 16.774a37.739 37.739 0 0 1 4.287.7l-1.335-22.046a2.3 2.3 0 0 0-1.791-2.164l-10.957-5.191-1.606 3.032 2.42-.58s-4.293 7.446-4.569 13.372l-3.618-12.533 1.4-.876z" class="cls-24" data-name="Path 389" transform="translate(-749.686 -324.009)"/>
                            <path id="Path_390" d="M770.409 345.8c-3.6 0-6.524-3.366-6.524-7.517V333.2a1.865 1.865 0 0 1 1.72-1.981h9.608a1.865 1.865 0 0 1 1.72 1.981v5.086c.001 4.149-2.921 7.514-6.524 7.514z" class="cls-25" data-name="Path 390" transform="translate(-750.294 -323.39)"/>
                            <path id="Path_391" d="M771.039 331.092a7.871 7.871 0 0 0 6.633 3.709c4.825.225-2-5.863-2-5.863z" class="cls-22" data-name="Path 391" transform="translate(-750.6 -323.293)"/>
                            <path id="Path_392" d="M770.628 331.073s-3.148 4.008-7.815 3.35 3.948-5.927 3.948-5.927z" class="cls-22" data-name="Path 392" transform="translate(-750.188 -323.274)"/>
                        </g>
                    </g>
                </g>
            </g>
            <path id="Path_393" d="M898.249 461.545H835.3a2.757 2.757 0 0 1-2.653-3.505l16.23-54.733a2.758 2.758 0 0 1 2.654-2.009h62.952a2.757 2.757 0 0 1 2.653 3.505L900.9 459.536a2.758 2.758 0 0 1-2.651 2.009z" class="cls-11" data-name="Path 393" transform="translate(-233.36 -290.371)"/>
            <g id="Group_229" data-name="Group 229" transform="translate(320.215 34.106)">
                <path id="Path_443" d="M31.121 0A31.121 31.121 0 1 1 0 31.121 31.121 31.121 0 0 1 31.121 0z" class="cls-26" data-name="Path 443"/>
                <g id="Group_228" class="cls-19" data-name="Group 228">
                    <g id="Group_227" class="cls-27" data-name="Group 227">
                        <g id="Group_226" data-name="Group 226" transform="translate(14.841 9.521)">
                            <path id="Rectangle_461" d="M12.641 0h7.28a12.641 12.641 0 0 1 12.641 12.641v13.222H0V12.641A12.641 12.641 0 0 1 12.641 0z" class="cls-28" data-name="Rectangle 461" transform="translate(0 30.631)"/>
                            <path id="Rectangle_462" d="M0 0h7.01v8.166a3.5 3.5 0 0 1-3.5 3.5A3.5 3.5 0 0 1 0 8.166V0z" class="cls-29" data-name="Rectangle 462" transform="translate(12.776 24.796)"/>
                            <path id="Path_394" d="M599.878 348.511H588.04c-1.518 0-2.749-1.634-2.749-3.649v-14.281h17.336v14.281c0 2.015-1.227 3.649-2.749 3.649z" class="cls-30" data-name="Path 394" transform="translate(-577.836 -320.973)"/>
                            <path id="Path_395" d="M585.209 338.249c0-1.476-5.623-12.03 2.8-13.587 5.91-1.094 8.852-4.239 13.594-4.116 3.556.091 3.305 2.869 2.993 8.419-.234 4.168 1.561 13.721-9.491 5.19-5.405-4.165-9.896 4.094-9.896 4.094z" class="cls-22" data-name="Path 395" transform="translate(-577.754 -320.543)"/>
                        </g>
                    </g>
                </g>
            </g>
            <path id="Path_396" d="M896.689 459.066h-62.952a2.757 2.757 0 0 1-2.654-3.505l16.231-54.733a2.757 2.757 0 0 1 2.653-2.009h62.952a2.758 2.758 0 0 1 2.653 3.505l-16.229 54.733a2.757 2.757 0 0 1-2.654 2.009z" class="cls-15" data-name="Path 396" transform="translate(-233.293 -290.265)"/>
            <g id="Group_233" class="cls-19" data-name="Group 233" transform="translate(616.193 114.84)">
                <circle id="Ellipse_160" cx="22.658" cy="22.658" r="22.658" class="cls-20" data-name="Ellipse 160" transform="translate(1.171 1.171)"/>
                <g id="Group_232" data-name="Group 232">
                    <g id="Group_231" class="cls-31" data-name="Group 231">
                        <g id="Group_230" data-name="Group 230" transform="translate(9.851 3.763)">
                            <path id="Path_397" d="M870.948 430.67l5.152 3.13 4.829-3.226 5.267 1.743s-5.511 18.588-.335 24.8-13.861 12.922-16.142 8.78-2.879-27.497-2.879-27.497z" class="cls-22" data-name="Path 397" transform="translate(-860.871 -410.227)"/>
                            <path id="Path_398" d="M870.907 429.086l.575 3.874 4.883 1.7 3.116-2.155-1.6-4.683s-6.113-1.481-6.974 1.264z" class="cls-23" data-name="Path 398" transform="translate(-861.045 -410.092)"/>
                            <path id="Path_399" d="M867.348 418.785c1.223 1.3-1.079 4.585.558 7.476s6.77 4.055 9.821 1.059.79-7.33.79-7.33-4.4-6.124-9.936-3.6a3.671 3.671 0 0 0-1.233 2.395z" class="cls-25" data-name="Path 399" transform="translate(-860.89 -409.594)"/>
                            <path id="Path_400" d="M864.747 419.607s2.732-1.848 4.059-1.51.755 2.029.755 2.029a5.449 5.449 0 0 1 3.889-1.541 9.514 9.514 0 0 1 5.448 2.547s3.63-3.894.851-7.9-7.09-2.1-8.758-3.256a4.423 4.423 0 0 0-4.463-.067s2.72.108 2.53.417c0 0-2.2-1.131-4.806 2.394l2.967-1.027c-1.359 1.007-4.88 3.749-2.472 7.914z" class="cls-22" data-name="Path 400" transform="translate(-860.746 -409.318)"/>
                            <path id="Path_401" d="M870.681 430.674c-1.445 1.1-10.078 7.085-10.078 7.085l1.177 19.8 7.6 12.609 2.981-4.159-4.5-12.651 1.278-11.853z" class="cls-24" data-name="Path 401" transform="translate(-860.604 -410.231)"/>
                            <path id="Path_402" d="M886.8 432.391s3.415.848 4.6 2.534a95.142 95.142 0 0 1 5.405 11.3c1.229 3.053-1.382 5.589-3.787 4.408a125.38 125.38 0 0 1-12.181-8.08s3.777-2.515 4.349-4.207z" class="cls-24" data-name="Path 402" transform="translate(-861.47 -410.305)"/>
                            <path id="Path_403" d="M885.376 438.612s5.575 4.3 6.029 5.52a6.837 6.837 0 0 0-6.029-5.52z" class="cls-32" data-name="Path 403" transform="translate(-861.664 -410.571)"/>
                            <path id="Path_404" d="M880.694 442.665l-3.079-7.582s3.566-.548 5.5 1.414-2.421 6.168-2.421 6.168z" class="cls-25" data-name="Path 404" transform="translate(-861.332 -410.417)"/>
                        </g>
                    </g>
                </g>
            </g>
            <path id="Path_405" d="M737.653 539.067h-68.988a3.021 3.021 0 0 1-2.908-3.841l17.786-59.981a3.021 3.021 0 0 1 2.908-2.2h68.989a3.022 3.022 0 0 1 2.908 3.841l-17.786 59.982a3.022 3.022 0 0 1-2.909 2.199z" class="cls-11" data-name="Path 405" transform="translate(-226.219 -303.441)"/>
            <path id="Path_406" d="M735.8 535.729h-68.989a3.022 3.022 0 0 1-2.908-3.841l17.786-59.982a3.021 3.021 0 0 1 2.908-2.2h68.989a3.022 3.022 0 0 1 2.908 3.841l-17.786 59.982a3.023 3.023 0 0 1-2.908 2.2z" class="cls-15" data-name="Path 406" transform="translate(-226.139 -303.298)"/>
            <circle id="Ellipse_162" cx="26.414" cy="26.414" r="26.414" class="cls-20" data-name="Ellipse 162" transform="translate(456.587 172.059)"/>
            <g id="Group_236" class="cls-19" data-name="Group 236" transform="translate(457.629 173.988)">
                <g id="Group_235" class="cls-33" data-name="Group 235">
                    <g id="Group_234" data-name="Group 234" transform="translate(1.759 6.986)">
                        <path id="Path_407" d="M718.077 496.583c-1.284 3.8-3.253 7.266-7.266 7.266a7.419 7.419 0 0 1-7.265-7.266c-.289-5.119 3.161-7.286 7.265-7.265 4.85.025 8.789 2.754 7.266 7.265z" class="cls-22" data-name="Path 407" transform="translate(-688.228 -485.111)"/>
                        <path id="Rectangle_463" d="M0 0h11.884v17.32H0z" class="cls-34" data-name="Rectangle 463" transform="translate(16.589 10.506)"/>
                        <path id="Path_408" d="M709.2 506.181s.38 5.449-.507 6.336 7.856 1.647 7.729.634-1.774-7.6-1.267-9-5.955 2.03-5.955 2.03z" class="cls-35" data-name="Path 408" transform="translate(-688.446 -485.732)"/>
                        <path id="Path_409" d="M709.2 506.181s.38 5.449-.507 6.336 7.856 1.647 7.729.634-1.774-7.6-1.267-9-5.955 2.03-5.955 2.03z" class="cls-23" data-name="Path 409" transform="translate(-688.446 -485.732)"/>
                        <path id="Path_410" d="M699.94 520.509l-4.553 15.391-.182.62h-7.661c3.049-9.436 10.585-23.351 10.585-23.351l1.176-.266z" class="cls-36" data-name="Path 410" transform="translate(-687.544 -486.121)"/>
                        <path id="Path_411" d="M699.94 520.509l-4.553 15.391-.182.62h-7.661c3.049-9.436 10.585-23.351 10.585-23.351l1.176-.266z" class="cls-37" data-name="Path 411" transform="translate(-687.544 -486.121)"/>
                        <circle id="Ellipse_163" cx="5.702" cy="5.702" r="5.702" class="cls-25" data-name="Ellipse 163" transform="translate(16.577 10.947)"/>
                        <path id="Path_412" d="M716.733 511.982s-2.027 1.9-4.307 1.52-3.238-3.154-3.238-3.154l-2.21 1.634s-.634 4.561 2.28 5.067 7.1.634 7.983 0-.508-5.067-.508-5.067z" class="cls-38" data-name="Path 412" transform="translate(-688.373 -486.011)"/>
                        <path id="Path_413" d="M723.158 518.516l-.364 1.182-5.134 16.736h-22.092a5.054 5.054 0 0 0 .1-.62c.286-2.382.118-8.392.118-8.805 0-.508 2.153-13.052 2.662-13.939a.815.815 0 0 1 .3-.253 15.5 15.5 0 0 1 3.306-1.056 58.723 58.723 0 0 1 2.355-.517 59.05 59.05 0 0 1 1.867-.346 7.434 7.434 0 0 1 .783-.108c.117 0 .2.139.259.351a9.68 9.68 0 0 1 .119 2.181 3.846 3.846 0 0 0 .569.533 7.2 7.2 0 0 0 1.59.948 9.4 9.4 0 0 0 1.509.515 11.1 11.1 0 0 0 1.652.286 5.053 5.053 0 0 0 1.366-.027 2.432 2.432 0 0 0 2.066-1.722c.041-.122.073-.237.1-.344.084-.325.12-.554.21-.55.231.022 3.144 2.519 5.037 4.159.9.777 1.565 1.364 1.606 1.4z" class="cls-39" data-name="Path 413" transform="translate(-687.887 -486.03)"/>
                        <path id="Path_414" d="M723.75 520.023l-5.134 16.736h-2.081a1.365 1.365 0 0 0 .229-.936 98.352 98.352 0 0 1 2.771-9.653c1.266-4.023 2.487-7.77 2.487-7.77l1.2.57s.22.406.528 1.053z" class="cls-40" data-name="Path 414" transform="translate(-688.785 -486.356)"/>
                        <path id="Path_415" d="M727.445 535.151c-.25.062-.223.805-.237 1.572h-9.832a1.453 1.453 0 0 0 .314-1.064c-.065-.448.9-5.066 1.883-9.525.77-3.526 1.546-6.955 1.815-8.149l.1-.444.117.056 2.54 1.207s3.927 7.478 2.662 9.251-1.268 1.774-.762 2.662 1.905 4.307 1.4 4.434z" class="cls-37" data-name="Path 415" transform="translate(-688.82 -486.319)"/>
                        <circle id="Ellipse_164" cx="2.868" cy="2.868" r="2.868" class="cls-22" data-name="Ellipse 164" transform="translate(19.715)"/>
                        <path id="Path_416" d="M708.628 494.788s-.06-.333-2.4.545-3.747 7.36-2.575 11.167a3.487 3.487 0 0 1-.539 3.413 5.639 5.639 0 0 0 2 8.758l.3.125 1.464.878a6.7 6.7 0 0 1-.932-5.6 16.1 16.1 0 0 0 .291-8.244 30.111 30.111 0 0 0-.367-1.418c-1.172-4.1-.6-3.626 3.5-7.725a26.077 26.077 0 0 0 4.392 2.635c2.049.879 3.806 1.757 2.342 4.685s-4.977 5.562-2.635 9.368 2.635 2.342 2.342 3.807l-.293 1.464 1.757-1.757-1.171 2.342s3.806 0 4.977-2.928l.585.586s2.342-4.1-2.049-7.906c0 0-1.464-.878.586-3.806s.476-9.222-2.159-10.393-9.416.004-9.416.004z" class="cls-22" data-name="Path 416" transform="translate(-688.154 -485.323)"/>
                        <path id="Path_417" d="M710.6 514.073l-4.878 8.449h1.14v1.141l5.544-9.59z" class="cls-38" data-name="Path 417" transform="translate(-688.322 -486.171)"/>
                    </g>
                </g>
            </g>
            <g id="Group_237" data-name="Group 237" transform="translate(0 169.162)">
                <path id="Path_418" d="M320.728 615.832h-5.68L312.5 591.9h10.486z" class="cls-41" data-name="Path 418" transform="translate(-241.109 -467.688)"/>
                <path id="Path_419" d="M310.351 570.676c-3.432 5.133-6.178 1.775-11 0s-5.322 2.024-15.851-5.076-.38-12.681-7.989-21.3-18.513-9.13-21.05-20.289 1.522-11.667-5.833-21.3-15.217-18.261-7.608-26.122 28.687 4.058 33.111 14.456 9.75 10.4 16.6 11.413 12.174 9.13 10.905 16.485 1.015 15.808 5.326 19.316 13.28 17.623 3.389 32.417z" class="cls-2" data-name="Path 419" transform="translate(-237.917 -462.645)"/>
                <path id="Path_420" d="M308.828 587.23S291 515.613 249.73 482.82" class="cls-42" data-name="Path 420" transform="translate(-238.423 -463.021)"/>
                <path id="Path_421" d="M309.57 569.854c.055 6.881 6.886 1.979 12.258 0s5.937 2.262 17.668-5.654.424-14.135 8.9-23.747 20.637-10.177 23.464-22.616-1.7-13 6.5-23.747 16.963-20.354 8.482-29.117-31.978 4.523-36.908 16.114-10.868 11.591-18.5 12.721-13.569 10.177-12.156 18.376-1.131 17.621-5.937 21.531-3.892 20.591-3.771 36.139z" class="cls-2" data-name="Path 421" transform="translate(-240.977 -462.136)"/>
                <path id="Path_422" d="M311.16 586.8s18.876-85.3 69.762-114.135" class="cls-42" data-name="Path 422" transform="translate(-241.051 -462.586)"/>
                <path id="Path_423" d="M311.16 591.291s.409-5.268 1.934-13.559" class="cls-43" data-name="Path 423" transform="translate(-241.051 -467.082)"/>
                <path id="Path_424" d="M311.087 591.291s-.409-6.007-1.637-13.559" class="cls-43" data-name="Path 424" transform="translate(-240.978 -467.082)"/>
                <path id="Line_80" d="M19.726 0H0" class="cls-43" data-name="Line 80" transform="translate(61.44 131.777)"/>
                <path id="Path_425" d="M320.211 615.832h-17.245l-2.544-23.932h22.05z" class="cls-43" data-name="Path 425" transform="translate(-240.592 -467.688)"/>
            </g>
            <g id="Group_240" data-name="Group 240" transform="translate(40.666 14.245)">
                <path id="Path_426" d="M511.939 442.075c8.218.112 46.6 6.681 57.92 22.774s-27.069 98.7-46.255 120.418l-21.556-7.7 11.882-81.8s-13.289-32.962-13.267-34.61 11.276-19.082 11.276-19.082z" class="cls-38" data-name="Path 426" transform="translate(-289.825 -306.361)"/>
                <path id="Path_427" d="M507.536 380.255c1.47 2.042 14.826 30.049 20.233 31.995s5.406-3.677 6.488-8.867 8.434-42.388 19.464-43.9-4.975 8.218-2.6 17.95 6.921 53.417-7.352 64.014-31.488 4.108-34.776-1.731-1.457-59.461-1.457-59.461z" class="cls-18" data-name="Path 427" transform="translate(-290.098 -302.82)"/>
                <path id="Path_428" d="M501.729 372.245c1.645.454 3.666 30.388 8.005 55.583 3.909 22.706 3.912 49.224-3.31 47.6-15.044-3.39-21.612 15.255-28.816 22.671s-31.146 29.664-50.427 22.884-26.274-31.571-17.374-55.3 38.774-80.939 70.345-99.16c4.767-2.331 1.819 4.24 7.847 5.98 3.645 1.046 7.395-2.003 13.73-.258z" class="cls-18" data-name="Path 428" transform="translate(-285.774 -303.107)"/>
                <path id="Path_429" d="M554.392 359.483c-11.029 1.513-18.382 38.711-19.464 43.9s-1.081 10.813-6.488 8.867c-1.545-.556-3.62-3.182-5.831-6.693-3.446 7.746-4.806 15.986-.32 23 4.5 7.03 5.412 13.527 4.1 18.525a28.2 28.2 0 0 0 18.055-5.633c14.274-10.6 9.732-54.282 7.353-64.014s13.625-19.466 2.595-17.952z" class="cls-44" data-name="Path 429" transform="translate(-290.629 -302.82)"/>
                <path id="Path_430" d="M499.859 323.161s4.189 8.232 8.726 11.373-3.839 3.491-4.363 6.632 2.564 3.49.671 6.98-4.685 0-5.034 5.584.266 14.484 5.005 16.23c0 0-15.631 4.962-19.663-6.108 0 0 1.924-5.935-4.22-13.139s-4.873-12.925-1.271-17.586 13.56-8.052 15.044-12.5 5.105 2.534 5.105 2.534z" class="cls-44" data-name="Path 430" transform="translate(-288.799 -301.101)"/>
                <path id="Path_431" d="M501.031 320.455c-1.452 1.907-5.932 3.389-9.534 5.509s-6.781 6.357-6.145 8.475 4.026 2.542 2.755 4.449-7.416-1.483-5.933 3.179 4.449 4.449 3.814 7.2-3.6 5.3-7.415 2.966-7.2-4.484-7.628-8.492 3.814-3.585 3.814-9.094-7.476-7.43-3.844-12.3 9.353.856 13.379-4.018.423-17.163 11.018-18.011 9.11 15.682 5.719 20.137z" class="cls-45" data-name="Path 431" transform="translate(-288.51 -300.294)"/>
                <g id="Group_238" data-name="Group 238" transform="translate(209.272 68.911)">
                    <path id="Path_432" d="M515.321 439.544c2.86.073 3.68.632 3.68.632-6.911-20.072-19.973-67.89-19.973-67.89s15.812 64.553 16.293 67.258z" class="cls-17" data-name="Path 432" transform="translate(-499.027 -372.286)"/>
                </g>
                <path id="Path_433" d="M405.986 493.928s-2.406 46.756 81.335 43.267c24.534-1.022 40.47-4.477 54.037 3.715 22.962 13.864 53.324 53.42 53.324 53.42l21.21-8.372s-11.207-40.652-35.983-70.123c-29.037-34.54-71.71-35.753-106.246-33.769s-31.716 15.073-67.677 11.862z" class="cls-37" data-name="Path 433" transform="translate(-285.774 -308.047)"/>
                <g id="Group_239" data-name="Group 239" transform="translate(174.053 86.497)">
                    <path id="Path_434" d="M476.254 396.58c4.972 6.433 3.5 16.962-3.367 30.122s-11.169 23.556-10.6 32.009c.738 11.025 16.9 14.052 34.369 15.431-32.432-6.862-30.771-14.348-27.569-29.091 3.546-16.327 18.034-34.637 12.066-46.03-3.215-6.138-10.023-8.345-16.7-8.363 4.687.453 9.29 2.673 11.801 5.922z" class="cls-17" data-name="Path 434" transform="translate(-462.234 -390.658)"/>
                </g>
                <path id="Path_435" d="M507.132 477.351c-21.513-1.186-46.389-2.5-47.309-16.245a28.021 28.021 0 0 1 .584-7.393c-8.342 1.384-11.989-1.192-17.058-1.521-11.331-.737-16.463 4.906-25.291.785-.131.33-.255.651-.366.951-5.246 14.282-.127 30.8 26.006 32.906 18.843 1.518 37.974.236 54.171.572 10.349.214 29.413 1.882 39.383 4.273.001.002-3.23-12.845-30.12-14.328z" class="cls-44" data-name="Path 435" transform="translate(-286.196 -306.791)"/>
                <path id="Path_436" d="M423.557 449.192c1.929.53 5.76.934 12.47-.682 10.736-2.586 14.1 1.13 18.7 1.72a29.221 29.221 0 0 0 3.12.259" class="cls-46" data-name="Path 436" transform="translate(-286.526 -306.597)"/>
                <path id="Path_437" d="M620.437 578.83l8.74 22.4 30.773 16.93h-50.8l-1.275-14.931-13.475-12.381z" class="cls-44" data-name="Path 437" transform="translate(-293.836 -312.212)"/>
                <path id="Path_438" d="M520.621 596.755l-6.191 8.194 24.217 13.839h-51.712l11.471-25.31z" class="cls-44" data-name="Path 438" transform="translate(-289.238 -312.839)"/>
                <rect id="Rectangle_464" width="38.194" height="13.673" class="cls-37" data-name="Rectangle 464" rx="6.836" transform="rotate(-27.05 706.214 -468.606)"/>
                <rect id="Rectangle_465" width="32.6" height="11.67" class="cls-38" data-name="Rectangle 465" rx="5.835" transform="rotate(17.938 -745.89 794.283)"/>
                <path id="Path_439" d="M400.584 493.452c1.31 10.456 5.189 21.979 14.61 30.846 18.815 17.709 56.527 17.64 56.527 17.64" class="cls-47" data-name="Path 439" transform="translate(-285.543 -308.559)"/>
                <path id="Path_440" d="M401.985 464.79a79.738 79.738 0 0 0-1.993 18.286" class="cls-47" data-name="Path 440" transform="translate(-285.518 -307.333)"/>
                <path id="Path_441" d="M445.272 540.332l23.946 67.1a6.379 6.379 0 0 1-6.007 8.522H383.93a6.378 6.378 0 0 1-5.81-9.01l36.089-79.675" class="cls-47" data-name="Path 441" transform="translate(-284.557 -310.006)"/>
                <path id="Line_81" d="M0 0h16.258" class="cls-47" data-name="Line 81" transform="translate(422.477 305.948)"/>
                <path id="Line_82" d="M0 0h344.477" class="cls-47" data-name="Line 82" transform="translate(67.374 305.948)"/>
                <path id="Line_83" d="M0 0h54.012" class="cls-47" data-name="Line 83" transform="translate(0 305.948)"/>
                <path id="Path_442" d="M445.284 497.248s27.782 18.5 85.637 18.663c41.785.122 61.7 51.253 61.7 51.253" class="cls-48" data-name="Path 442" transform="translate(-287.456 -308.721)"/>
            </g>
        </g>
    </g>
</svg>
