<svg xmlns="http://www.w3.org/2000/svg" width="46.234" height="56.454" viewBox="0 0 46.234 56.454">
    <defs>
        <style>
            .cls-1{fill:#390d00}.cls-2{fill:#ec8c39}
        </style>
    </defs>
    <g id="Group_131" data-name="Group 131" transform="translate(-546.589 -166.159)">
        <path id="Path_109" d="M585.768 208.471s-10.343-8.3-18.511 3.156c-7.605 10.667-8.648 11.167-13.621 11.188 0 0 12.2 4.913 17.694-4.053 4.51-7.362 6.194-10.692 14.438-10.291z" class="cls-1" data-name="Path 109" transform="translate(-.276 -1.546)"/>
        <path id="Path_110" d="M594.2 223.362a8.772 8.772 0 0 1-11.885-4.169l-.229-.5a4.521 4.521 0 0 1 2.084-5.94 4.522 4.522 0 0 1 6.126 2.149z" class="cls-1" data-name="Path 110" transform="translate(-1.376 -1.81)"/>
        <path id="Path_111" d="M584.08 201.594a18.9 18.9 0 0 0-10.247-.785l-9.628-28.849 3.006-5.8z" class="cls-2" data-name="Path 111" transform="translate(-.691)"/>
        <path id="Path_112" d="M546.59 204.611c5.176-1.292 10.111-5.476 13.246-11.231l9.827-20.325-3.143-6.9z" class="cls-2" data-name="Path 112"/>
    </g>
</svg>
