<svg xmlns="http://www.w3.org/2000/svg" width="44.791" height="59.899" viewBox="0 0 44.791 59.899">
    <defs>
        <style>
            .cls-1,.cls-2{fill:#efefef}.cls-2,.cls-3{stroke:#131313;stroke-width:2px}.cls-3,.cls-7{fill:none}.cls-4,.cls-6{fill:#131313}.cls-5,.cls-6{stroke:none}
        </style>
    </defs>
    <g id="Group_168" data-name="Group 168" transform="translate(-.139 .137)">
        <g id="Union_1" class="cls-1" data-name="Union 1">
            <path d="M41.924 51.763H3.143c-.78 0-1.451-.419-1.795-1.119a1.963 1.963 0 0 1 .213-2.105l10.173-13.165 1.245-1.611H8.22a1.961 1.961 0 0 1-1.8-1.128 1.96 1.96 0 0 1 .229-2.11l7.997-10.144 1.277-1.619H12.925a1.966 1.966 0 0 1-1.782-1.092 1.966 1.966 0 0 1 .164-2.084l10.109-13.9a1.98 1.98 0 0 1 1.618-.823c.647 0 1.237.3 1.617.823l10.11 13.9c.45.62.512 1.4.164 2.084a1.966 1.966 0 0 1-1.782 1.092H29.145l1.276 1.62 7.998 10.142a1.96 1.96 0 0 1 .229 2.11 1.961 1.961 0 0 1-1.8 1.129h-4.759l1.245 1.61L43.507 48.54c.477.618.556 1.404.212 2.105a1.962 1.962 0 0 1-1.795 1.119z" class="cls-5"/>
            <path d="M41.924 50.763a.975.975 0 0 0 .898-.56.974.974 0 0 0-.107-1.052L32.542 35.985l-2.49-3.222h6.796a.974.974 0 0 0 .9-.564.973.973 0 0 0-.115-1.055L29.636 21l-2.553-3.239h6.06a.976.976 0 0 0 .89-.546.976.976 0 0 0-.082-1.042l-10.108-13.9a.98.98 0 0 0-.81-.411.98.98 0 0 0-.808.411l-10.109 13.9a.976.976 0 0 0-.082 1.042.976.976 0 0 0 .89.546h5.061l-2.554 3.239-7.997 10.143a.973.973 0 0 0-.114 1.055c.082.17.334.564.9.564h6.795l-2.49 3.222L2.352 49.151a.975.975 0 0 0-.106 1.053.974.974 0 0 0 .897.559h38.78m0 2H3.144C.65 52.763-.754 49.9.77 47.928l10.173-13.165H8.22c-2.506 0-3.908-2.89-2.356-4.858l7.997-10.143h-.936c-2.452 0-3.868-2.782-2.426-4.764l10.108-13.9a2.981 2.981 0 0 1 2.427-1.235c.913 0 1.827.412 2.426 1.235l10.109 13.9c1.442 1.982.025 4.764-2.426 4.764h-1.936l7.997 10.143c1.552 1.968.15 4.858-2.356 4.858h-2.723l10.173 13.165c1.524 1.972.118 4.835-2.374 4.835z" class="cls-6"/>
        </g>
        <g id="Rectangle_414" class="cls-2" data-name="Rectangle 414">
            <path d="M0 0h10v6a3 3 0 0 1-3 3H3a3 3 0 0 1-3-3V0z" class="cls-5" transform="translate(18.034 50.762)"/>
            <path d="M2 1h6a1 1 0 0 1 1 1v4a2 2 0 0 1-2 2H3a2 2 0 0 1-2-2V2a1 1 0 0 1 1-1z" class="cls-7" transform="translate(18.034 50.762)"/>
        </g>
        <path id="Path_152" d="M-2348.172 1649.6s2.955 5.663 17 6" class="cls-3" data-name="Path 152" transform="translate(2364.705 -1641.336)"/>
        <path id="Path_153" d="M-2340.048 1655.263s-2.4 15.686-16 14" class="cls-3" data-name="Path 153" transform="translate(2365.582 -1642)"/>
        <path id="Path_154" d="M-2349.313 1670.989s2.561 15.36 22 13" class="cls-3" data-name="Path 154" transform="translate(2364.846 -1643.727)"/>
        <path id="Path_155" d="M-2338.6 1685.615a17.585 17.585 0 0 1-14 12" class="cls-3" data-name="Path 155" transform="translate(2365.136 -1645.353)"/>
        <circle id="Ellipse_102" cx="1.5" cy="1.5" r="1.5" class="cls-4" data-name="Ellipse 102" transform="translate(22.034 6.762)"/>
        <circle id="Ellipse_103" cx="1.5" cy="1.5" r="1.5" class="cls-4" data-name="Ellipse 103" transform="translate(25.034 27.762)"/>
        <circle id="Ellipse_104" cx="1.5" cy="1.5" r="1.5" class="cls-4" data-name="Ellipse 104" transform="translate(14.034 41.762)"/>
        <circle id="Ellipse_105" cx="1.5" cy="1.5" r="1.5" class="cls-4" data-name="Ellipse 105" transform="translate(30.034 44.762)"/>
    </g>
</svg>
