<svg xmlns="http://www.w3.org/2000/svg" xmlns:xlink="http://www.w3.org/1999/xlink" width="182" height="156" viewBox="0 0 182 156">
  <defs>
    <clipPath id="clip-path">
      <rect width="182" height="156" fill="none"/>
    </clipPath>
  </defs>
  <g id="Repeat_Grid_1" data-name="Repeat Grid 1" clip-path="url(#clip-path)">
    <g transform="translate(-205 -169)">
      <circle id="Ellipse_2" data-name="Ellipse 2" cx="3" cy="3" r="3" transform="translate(205 169)" fill="#ffa04e"/>
    </g>
    <g transform="translate(-174 -169)">
      <circle id="Ellipse_2-2" data-name="Ellipse 2" cx="3" cy="3" r="3" transform="translate(205 169)" fill="#ffa04e"/>
    </g>
    <g transform="translate(-143 -169)">
      <circle id="Ellipse_2-3" data-name="Ellipse 2" cx="3" cy="3" r="3" transform="translate(205 169)" fill="#ffa04e"/>
    </g>
    <g transform="translate(-112 -169)">
      <circle id="Ellipse_2-4" data-name="Ellipse 2" cx="3" cy="3" r="3" transform="translate(205 169)" fill="#ffa04e"/>
    </g>
    <g transform="translate(-81 -169)">
      <circle id="Ellipse_2-5" data-name="Ellipse 2" cx="3" cy="3" r="3" transform="translate(205 169)" fill="#ffa04e"/>
    </g>
    <g transform="translate(-50 -169)">
      <circle id="Ellipse_2-6" data-name="Ellipse 2" cx="3" cy="3" r="3" transform="translate(205 169)" fill="#ffa04e"/>
    </g>
    <g transform="translate(-205 -138)">
      <circle id="Ellipse_2-7" data-name="Ellipse 2" cx="3" cy="3" r="3" transform="translate(205 169)" fill="#ffa04e"/>
    </g>
    <g transform="translate(-174 -138)">
      <circle id="Ellipse_2-8" data-name="Ellipse 2" cx="3" cy="3" r="3" transform="translate(205 169)" fill="#ffa04e"/>
    </g>
    <g transform="translate(-143 -138)">
      <circle id="Ellipse_2-9" data-name="Ellipse 2" cx="3" cy="3" r="3" transform="translate(205 169)" fill="#ffa04e"/>
    </g>
    <g transform="translate(-112 -138)">
      <circle id="Ellipse_2-10" data-name="Ellipse 2" cx="3" cy="3" r="3" transform="translate(205 169)" fill="#ffa04e"/>
    </g>
    <g transform="translate(-81 -138)">
      <circle id="Ellipse_2-11" data-name="Ellipse 2" cx="3" cy="3" r="3" transform="translate(205 169)" fill="#ffa04e"/>
    </g>
    <g transform="translate(-50 -138)">
      <circle id="Ellipse_2-12" data-name="Ellipse 2" cx="3" cy="3" r="3" transform="translate(205 169)" fill="#ffa04e"/>
    </g>
    <g transform="translate(-205 -107)">
      <circle id="Ellipse_2-13" data-name="Ellipse 2" cx="3" cy="3" r="3" transform="translate(205 169)" fill="#ffa04e"/>
    </g>
    <g transform="translate(-174 -107)">
      <circle id="Ellipse_2-14" data-name="Ellipse 2" cx="3" cy="3" r="3" transform="translate(205 169)" fill="#ffa04e"/>
    </g>
    <g transform="translate(-143 -107)">
      <circle id="Ellipse_2-15" data-name="Ellipse 2" cx="3" cy="3" r="3" transform="translate(205 169)" fill="#ffa04e"/>
    </g>
    <g transform="translate(-112 -107)">
      <circle id="Ellipse_2-16" data-name="Ellipse 2" cx="3" cy="3" r="3" transform="translate(205 169)" fill="#ffa04e"/>
    </g>
    <g transform="translate(-81 -107)">
      <circle id="Ellipse_2-17" data-name="Ellipse 2" cx="3" cy="3" r="3" transform="translate(205 169)" fill="#ffa04e"/>
    </g>
    <g transform="translate(-50 -107)">
      <circle id="Ellipse_2-18" data-name="Ellipse 2" cx="3" cy="3" r="3" transform="translate(205 169)" fill="#ffa04e"/>
    </g>
    <g transform="translate(-205 -76)">
      <circle id="Ellipse_2-19" data-name="Ellipse 2" cx="3" cy="3" r="3" transform="translate(205 169)" fill="#ffa04e"/>
    </g>
    <g transform="translate(-174 -76)">
      <circle id="Ellipse_2-20" data-name="Ellipse 2" cx="3" cy="3" r="3" transform="translate(205 169)" fill="#ffa04e"/>
    </g>
    <g transform="translate(-143 -76)">
      <circle id="Ellipse_2-21" data-name="Ellipse 2" cx="3" cy="3" r="3" transform="translate(205 169)" fill="#ffa04e"/>
    </g>
    <g transform="translate(-112 -76)">
      <circle id="Ellipse_2-22" data-name="Ellipse 2" cx="3" cy="3" r="3" transform="translate(205 169)" fill="#ffa04e"/>
    </g>
    <g transform="translate(-81 -76)">
      <circle id="Ellipse_2-23" data-name="Ellipse 2" cx="3" cy="3" r="3" transform="translate(205 169)" fill="#ffa04e"/>
    </g>
    <g transform="translate(-50 -76)">
      <circle id="Ellipse_2-24" data-name="Ellipse 2" cx="3" cy="3" r="3" transform="translate(205 169)" fill="#ffa04e"/>
    </g>
    <g transform="translate(-205 -45)">
      <circle id="Ellipse_2-25" data-name="Ellipse 2" cx="3" cy="3" r="3" transform="translate(205 169)" fill="#ffa04e"/>
    </g>
    <g transform="translate(-174 -45)">
      <circle id="Ellipse_2-26" data-name="Ellipse 2" cx="3" cy="3" r="3" transform="translate(205 169)" fill="#ffa04e"/>
    </g>
    <g transform="translate(-143 -45)">
      <circle id="Ellipse_2-27" data-name="Ellipse 2" cx="3" cy="3" r="3" transform="translate(205 169)" fill="#ffa04e"/>
    </g>
    <g transform="translate(-112 -45)">
      <circle id="Ellipse_2-28" data-name="Ellipse 2" cx="3" cy="3" r="3" transform="translate(205 169)" fill="#ffa04e"/>
    </g>
    <g transform="translate(-81 -45)">
      <circle id="Ellipse_2-29" data-name="Ellipse 2" cx="3" cy="3" r="3" transform="translate(205 169)" fill="#ffa04e"/>
    </g>
    <g transform="translate(-50 -45)">
      <circle id="Ellipse_2-30" data-name="Ellipse 2" cx="3" cy="3" r="3" transform="translate(205 169)" fill="#ffa04e"/>
    </g>
  </g>
</svg>
